<svg width="512" height="512" viewBox="0 0 512 512" fill="none" xmlns="http://www.w3.org/2000/svg">

  <defs>
    <linearGradient id="bodyGrad" x1="0" y1="0" x2="1" y2="1">
      <stop offset="0%" stop-color="#ff6a6a"/>
      <stop offset="35%" stop-color="#ff2d2d"/>
      <stop offset="70%" stop-color="#d90d0d"/>
      <stop offset="100%" stop-color="#8c0000"/>
    </linearGradient>
    <linearGradient id="shineGrad" x1="0" y1="0" x2="0.9" y2="1">
      <stop offset="0%" stop-color="rgba(255,255,255,0.95)"/>
      <stop offset="100%" stop-color="rgba(255,255,255,0)"/>
    </linearGradient>
    <filter id="shadow" x="-40%" y="-40%" width="180%" height="180%">
      <feDropShadow dx="0" dy="14" stdDeviation="12" flood-color="#7a0000" flood-opacity="0.35"/>
    </filter>
    <filter id="innerGlow">
      <feGaussianBlur in="SourceAlpha" stdDeviation="4" result="blur"/>
      <feOffset dx="0" dy="1"/>
      <feComposite in2="SourceAlpha" operator="arithmetic" k2="-1" k3="1"/>
      <feColorMatrix type="matrix" values="
        0 0 0 0 1
        0 0 0 0 0.55
        0 0 0 0 0.55
        0 0 0 .35 0"/>
    </filter>
  </defs>


  <g filter="url(#shadow)">
    <rect x="86" y="116" width="340" height="280" rx="58" fill="url(#bodyGrad)"/>
    <rect x="86" y="116" width="340" height="280" rx="58" stroke="#ffb3b3" stroke-opacity="0.35" stroke-width="6"/>
    <path d="M120 148C160 126 235 116 300 125C353 133 389 149 407 172" stroke="white" stroke-opacity="0.35" stroke-width="16" stroke-linecap="round"/>
    <ellipse cx="256" cy="256" rx="108" ry="108" fill="#ffffff" fill-opacity="0.14"/>
    <path d="M256 178L273 230H328L283 263L300 316L256 283L212 316L229 263L184 230H239L256 178Z" fill="#fff" fill-opacity="0.95"/>
    <path d="M138 328C190 350 302 350 374 312" stroke="#7c0000" stroke-opacity="0.25" stroke-width="18" stroke-linecap="round"/>
  </g>

</svg>