<svg width="512" height="512" viewBox="0 0 512 512" fill="none" xmlns="http://www.w3.org/2000/svg">

  <defs>
    <linearGradient id="bodyGrad" x1="0" y1="0" x2="1" y2="1">
      <stop offset="0%" stop-color="#ff6a6a"/>
      <stop offset="35%" stop-color="#ff2d2d"/>
      <stop offset="70%" stop-color="#d90d0d"/>
      <stop offset="100%" stop-color="#8c0000"/>
    </linearGradient>
    <linearGradient id="shineGrad" x1="0" y1="0" x2="0.9" y2="1">
      <stop offset="0%" stop-color="rgba(255,255,255,0.95)"/>
      <stop offset="100%" stop-color="rgba(255,255,255,0)"/>
    </linearGradient>
    <filter id="shadow" x="-40%" y="-40%" width="180%" height="180%">
      <feDropShadow dx="0" dy="14" stdDeviation="12" flood-color="#7a0000" flood-opacity="0.35"/>
    </filter>
    <filter id="innerGlow">
      <feGaussianBlur in="SourceAlpha" stdDeviation="4" result="blur"/>
      <feOffset dx="0" dy="1"/>
      <feComposite in2="SourceAlpha" operator="arithmetic" k2="-1" k3="1"/>
      <feColorMatrix type="matrix" values="
        0 0 0 0 1
        0 0 0 0 0.55
        0 0 0 0 0.55
        0 0 0 .35 0"/>
    </filter>
  </defs>


  <g filter="url(#shadow)">
    <path d="M256 355C278 355 296 373 296 395C296 417 278 435 256 435C234 435 216 417 216 395C216 373 234 355 256 355Z" fill="url(#bodyGrad)"/>
    <path d="M183 324C222 286 290 286 329 324" stroke="url(#bodyGrad)" stroke-width="34" stroke-linecap="round"/>
    <path d="M132 271C198 211 314 211 380 271" stroke="url(#bodyGrad)" stroke-width="34" stroke-linecap="round"/>
    <path d="M89 215C182 133 330 133 423 215" stroke="url(#bodyGrad)" stroke-width="34" stroke-linecap="round"/>
    <path d="M110 205C175 147 337 143 402 205" stroke="white" stroke-opacity="0.22" stroke-width="10" stroke-linecap="round"/>
    <path d="M154 262C212 214 302 214 358 262" stroke="white" stroke-opacity="0.18" stroke-width="10" stroke-linecap="round"/>
    <ellipse cx="256" cy="395" rx="21" ry="14" fill="#fff" fill-opacity="0.3"/>
  </g>

</svg>