<?xml version="1.0" encoding="utf-8"?>
<!-- Generator: Adobe Illustrator 23.1.0, SVG Export Plug-In . SVG Version: 6.00 Build 0)  -->
<svg version="1.1" id="Слой_1" xmlns="http://www.w3.org/2000/svg" xmlns:xlink="http://www.w3.org/1999/xlink" x="0px" y="0px"
	 viewBox="0 0 179.5 100.5" style="enable-background:new 0 0 179.5 100.5;" xml:space="preserve">
<style type="text/css">
	.st0{fill:#E21A1A;}
	.st1{fill:#707070;}
</style>
<g>
	<polygon class="st0" points="75.4,14.4 62.1,14.4 62.1,32.4 75.4,32.4 75.4,59.4 93.8,59.4 93.8,32.4 107.1,32.4 107.1,14.4 
		93.8,14.4 	"/>
	<polygon class="st0" points="26,14.4 12.6,14.4 12.6,32.4 26,32.4 26,59.4 44.3,59.4 44.3,32.4 57.6,32.4 57.6,14.4 44.3,14.4 	"/>
	<polygon class="st0" points="145.5,14.4 130,32.2 130,14.4 111.6,14.4 111.6,59.4 130,59.4 130,39.6 145.5,59.4 165.6,59.4 
		146.4,35.9 165.6,14.4 	"/>
</g>
<g>
	<path class="st1" d="M17.6,76.2c2.9,0,4.4,2,4.4,5c0,3.2-1.6,5-4.4,5c-3,0-4.4-2-4.4-5C13.3,78,14.9,76.2,17.6,76.2z M17.6,84.1
		c1.2,0,1.8-0.8,1.8-2.9c0-1.7-0.5-2.9-1.8-2.9c-1.2,0-1.8,0.9-1.8,2.9C15.8,83.1,16.3,84.1,17.6,84.1z"/>
	<path class="st1" d="M29.1,76.4v2.7C29.5,79,29.7,79,30,79c1.9,0,2.9,1,2.9,3.5c0,2.3-1.1,3.8-2.9,3.8c-0.2,0-0.6,0-0.8-0.1v2.7
		h-2.3v-2.7c-0.3,0.1-0.7,0.1-1,0.1c-1.8,0-2.7-1.2-2.7-3.7c0-2.4,1.1-3.6,3-3.6c0.2,0,0.5,0,0.7,0.1v-2.7H29.1z M27,80.8
		c-0.2-0.1-0.3-0.1-0.5-0.1c-0.7,0-1.1,0.4-1.1,1.9c0,1.3,0.3,1.9,1,1.9c0.2,0,0.4,0,0.5-0.1V80.8z M29,84.5c0.1,0,0.3,0.1,0.5,0.1
		c0.7,0,1-0.5,1-2c0-1.4-0.3-1.8-1.1-1.8c-0.2,0-0.3,0-0.4,0.1V84.5z"/>
	<path class="st1" d="M36.4,79.2V82l-0.1,0.7h0.1l2.6-3.6h1.7v6.9h-2.3v-2.9l0.1-0.7h-0.1l-2.6,3.6h-1.7v-6.9H36.4z"/>
	<path class="st1" d="M44.7,79.2v5.1h1.7v-5.1h2.3v5h1.1v3.6H48l-0.2-1.7h-5.4v-6.9H44.7z"/>
	<path class="st1" d="M53.1,79.2V82l-0.1,0.7h0.1l2.6-3.6h1.7v6.9h-2.3v-2.9l0.1-0.7h-0.1l-2.6,3.6h-1.7v-6.9H53.1z"/>
	<path class="st1" d="M59,79.6c0.7-0.4,1.7-0.6,3.1-0.6c2.1,0,2.8,0.9,2.8,2.7v2.7c0,0.4,0.1,1.1,0.2,1.8H63l-0.1-0.7
		c-0.4,0.6-1.1,0.9-2.1,0.9c-1.3,0-2.1-0.9-2.1-2.1c0-1.7,1.3-2.2,3.4-2.2c0.2,0,0.5,0,0.7,0v-0.2c0-0.6-0.2-0.8-0.9-0.8
		c-0.9,0-1.6,0.2-2.2,0.4L59,79.6z M62.7,83.1c-0.2,0-0.3,0-0.5,0c-0.7,0-1.3,0.1-1.3,0.8c0,0.3,0.2,0.6,0.7,0.6
		c0.5,0,0.9-0.3,1.1-0.6V83.1z"/>
	<path class="st1" d="M72.8,79.2v6.9h-2.3V81h-1.2c-0.2,2.9-0.6,5.3-2.7,5.3c-0.5,0-1-0.1-1.2-0.2l0.3-1.7c1.1,0.5,1.5-0.3,1.7-5.2
		H72.8z"/>
	<path class="st1" d="M76.8,79.2v2.4c0.5-0.1,1.1-0.1,1.4-0.1c2,0,2.7,0.9,2.7,2.2c0,1.7-0.9,2.6-3.5,2.6c-1.3,0-2.2-0.1-2.9-0.1
		v-6.9H76.8z M76.8,84.4c0.2,0,0.5,0.1,0.7,0.1c0.7,0,1.1-0.2,1.1-0.8c0-0.5-0.3-0.7-1-0.7c-0.3,0-0.5,0-0.8,0.1V84.4z"/>
	<path class="st1" d="M84.4,79.2v2.4h1.9v-2.4h2.3v6.9h-2.3v-2.6h-1.9v2.6h-2.3v-6.9H84.4z"/>
	<path class="st1" d="M92.6,79.2v2.4c0.5-0.1,1-0.1,1.4-0.1c1.8,0,2.5,0.9,2.5,2.2c0,1.7-0.8,2.6-3.3,2.6c-1.4,0-2.2-0.1-2.9-0.1
		v-6.9H92.6z M92.6,84.4c0.2,0,0.4,0.1,0.7,0.1c0.7,0,1-0.2,1-0.8c0-0.5-0.3-0.7-0.9-0.7c-0.3,0-0.5,0-0.7,0.1V84.4z M99.4,79.2v6.9
		h-2.3v-6.9H99.4z"/>
	<path class="st1" d="M103.3,79.2V82l-0.1,0.7h0.1l2.6-3.6h1.7v6.9h-2.3v-2.9l0.1-0.7h-0.1l-2.6,3.6h-1.7v-6.9H103.3z M103.7,76.2
		c0.1,0.7,0.4,0.9,0.9,0.9c0.6,0,0.8-0.2,0.9-0.9l1.4,0.4c-0.2,1.2-1.2,1.8-2.4,1.8c-1.1,0-2.1-0.5-2.4-1.9L103.7,76.2z"/>
	<path class="st1" d="M118.9,79.2v6.9h-2.3V81h-1.8v5.1h-2.3v-6.9H118.9z"/>
	<path class="st1" d="M120.5,79.6c0.7-0.4,1.7-0.6,3.1-0.6c2.1,0,2.8,0.9,2.8,2.7v2.7c0,0.4,0.1,1.1,0.2,1.8h-2.2l-0.1-0.7
		c-0.4,0.6-1.1,0.9-2.1,0.9c-1.3,0-2.1-0.9-2.1-2.1c0-1.7,1.3-2.2,3.4-2.2c0.2,0,0.5,0,0.7,0v-0.2c0-0.6-0.2-0.8-0.9-0.8
		c-0.9,0-1.6,0.2-2.2,0.4L120.5,79.6z M124.1,83.1c-0.2,0-0.3,0-0.5,0c-0.7,0-1.3,0.1-1.3,0.8c0,0.3,0.2,0.6,0.7,0.6
		c0.5,0,0.9-0.3,1.1-0.6V83.1z"/>
	<path class="st1" d="M128.1,79.4c0.7-0.2,1.9-0.5,3.3-0.5c2.6,0,3.4,1,3.4,3.5c0,2.6-1,3.8-3,3.8c-0.6,0-1.1-0.1-1.5-0.2v2.8h-2.3
		V79.4z M130.3,84.1c0.2,0.2,0.5,0.3,1,0.3c0.8,0,1.2-0.5,1.2-1.9c0-1.1-0.4-1.7-1.1-1.7c-0.4,0-0.7,0.1-1,0.2V84.1z"/>
	<path class="st1" d="M141.6,79.2v1.9h-2v5h-2.3v-5h-2v-1.9H141.6z"/>
	<path class="st1" d="M145,79.2v2.4h1.9v-2.4h2.3v6.9h-2.3v-2.6H145v2.6h-2.3v-6.9H145z"/>
	<path class="st1" d="M156.8,85.4c-0.6,0.4-1.7,0.9-2.9,0.9c-2.4,0-3.4-1.4-3.4-3.7c0-2.4,1.4-3.7,3.6-3.7c1.6,0,3,0.8,3,2.8
		c0,0.5-0.1,1.1-0.2,1.5h-4.2c0.1,0.9,0.6,1.2,1.6,1.2c0.9,0,1.5-0.3,1.8-0.5L156.8,85.4z M154.9,82c0,0,0-0.1,0-0.2
		c0-0.6-0.3-1.1-1-1.1c-0.9,0-1.2,0.7-1.2,1.3H154.9z"/>
	<path class="st1" d="M158.3,79.4c0.7-0.2,1.9-0.5,3.3-0.5c2.6,0,3.4,1,3.4,3.5c0,2.6-1,3.8-3,3.8c-0.6,0-1.1-0.1-1.5-0.2v2.8h-2.3
		V79.4z M160.6,84.1c0.2,0.2,0.5,0.3,1,0.3c0.8,0,1.2-0.5,1.2-1.9c0-1.1-0.4-1.7-1.1-1.7c-0.4,0-0.7,0.1-1,0.2V84.1z"/>
</g>
</svg>
